<svg xmlns="http://www.w3.org/2000/svg" fill="currentColor" viewBox="0 0 100 100"><path d="M61.24 9H42.776C21.393 9 4.095 26.336 4.095 47.679 2.013 74.103 34.856 91.236 48.486 97.153c2.75 1.209 5.792-.834 5.792-3.834v-8.544a4.181 4.181 0 0 1 4.169-4.169h2.75C80.995 80.606 97 64.561 97 44.804 97 25.046 80.954 9 61.197 9h.043ZM32.854 54.389a5.496 5.496 0 0 1-5.5-5.501c0-3.044 2.459-5.5 5.5-5.5a5.495 5.495 0 0 1 5.504 5.5 5.497 5.497 0 0 1-5.504 5.501Zm17.673 0a5.498 5.498 0 0 1-5.502-5.501c0-3.044 2.461-5.5 5.502-5.5a5.494 5.494 0 0 1 5.503 5.5 5.496 5.496 0 0 1-5.503 5.501Zm17.675 0a5.498 5.498 0 0 1-5.505-5.501c0-3.044 2.461-5.5 5.505-5.5a5.495 5.495 0 0 1 5.501 5.5 5.497 5.497 0 0 1-5.501 5.501Z"/></svg>