<svg xmlns="http://www.w3.org/2000/svg" fill="currentColor" viewBox="0 0 100 100"><path d="M82.199 25.301H17.801c-1.3 0-2.3 1.102-2.2 2.398l7.5 62.398c.5 4.2 4.102 7.399 8.4 7.399h37c4.3 0 7.898-3.2 8.398-7.399l7.5-62.398a2.204 2.204 0 0 0-2.2-2.398zM36.898 83h-.2c-1.198 0-2.198-.898-2.3-2.102L30.296 42.2c-.101-1.3.801-2.398 2.102-2.5 1.3-.101 2.398.801 2.5 2.102L39 80.5c.101 1.3-.801 2.398-2.102 2.5zM52.3 80.7c0 1.3-1 2.3-2.3 2.3s-2.302-1-2.302-2.3V42c0-1.3 1-2.3 2.301-2.3s2.301 1 2.301 2.3zm13.301.3a2.296 2.296 0 0 1-2.3 2.102h-.2c-1.3-.102-2.2-1.301-2.102-2.5l4.102-38.7c.102-1.3 1.3-2.199 2.5-2.101 1.3.102 2.2 1.3 2.102 2.5zM86.602 10.801H67.301l-4.602-6.398C61.9 3.203 60.5 2.504 59 2.504L41 2.5c-1.5 0-2.8.7-3.699 1.899l-4.602 6.398-19.3.004a4.269 4.269 0 0 0-4.301 4.3c0 2.4 1.898 4.302 4.3 4.302h73.2c2.398 0 4.3-1.899 4.3-4.301S89 10.8 86.601 10.8z"/></svg>