<svg xmlns="http://www.w3.org/2000/svg" viewBox="0 0 100 100"><path d="M50 9.375a40.635 40.635 0 0 0-28.727 11.898 40.63 40.63 0 0 0 0 57.454 40.63 40.63 0 0 0 57.454 0A40.63 40.63 0 0 0 90.625 50a40.658 40.658 0 0 0-11.914-28.711A40.66 40.66 0 0 0 50 9.375zm0 75a34.39 34.39 0 0 1-24.309-10.066 34.386 34.386 0 0 1 0-48.618 34.386 34.386 0 0 1 48.618 0A34.386 34.386 0 0 1 84.375 50a34.407 34.407 0 0 1-10.082 24.293A34.41 34.41 0 0 1 50 84.375z"/><path d="M50 25a15.641 15.641 0 0 0-15.625 15.625v3.125a3.124 3.124 0 1 0 6.25 0v-3.125c0-5.176 4.2-9.375 9.375-9.375s9.375 4.2 9.375 9.375v.457a6.217 6.217 0 0 1-3.438 5.59l-2.136 1.066a12.432 12.432 0 0 0-6.926 11.18v6.707a3.124 3.124 0 1 0 6.25 0v-6.707a6.223 6.223 0 0 1 3.453-5.59l2.137-1.066a12.434 12.434 0 0 0 6.91-11.18v-.457A15.641 15.641 0 0 0 50 25zM53.125 75c0 4.168-6.25 4.168-6.25 0s6.25-4.168 6.25 0"/></svg>