<svg xmlns="http://www.w3.org/2000/svg" viewBox="0 0 100 100"><path d="M12.626 77.478a2.65 2.65 0 0 0 2.646 2.646h53.112a2.65 2.65 0 0 0 2.646-2.646V6.732a2.65 2.65 0 0 0-2.646-2.646H30.676v13.542a4.414 4.414 0 0 1-4.413 4.408l-13.637.004zm8.142-51.217h42.124c.488 0 .884.391.884.883a.878.878 0 0 1-.884.883H20.768a.881.881 0 0 1-.884-.883c0-.492.396-.883.884-.883zm0 11.316h42.124c.488 0 .884.392.884.883a.878.878 0 0 1-.884.884H20.768a.884.884 0 0 1 0-1.767zm0 11.325h42.124c.488 0 .884.391.884.883s-.392.883-.884.883H20.768c-.488 0-.884-.391-.884-.883s.396-.883.884-.883zm0 11.32h42.124c.488 0 .884.392.884.884a.878.878 0 0 1-.884.883H20.768a.881.881 0 0 1-.884-.883c0-.492.396-.884.884-.884z"/><path d="M75.359 11.065H72.8v66.408a4.413 4.413 0 0 1-4.408 4.409H19.597v2.57a2.65 2.65 0 0 0 2.645 2.647h53.113A2.65 2.65 0 0 0 78 84.453l.004-70.741a2.652 2.652 0 0 0-2.646-2.646zM28.91 17.628v-12.3L13.88 20.28h12.383a2.65 2.65 0 0 0 2.646-2.65z"/><path d="M26.572 88.87v2.57a2.65 2.65 0 0 0 2.646 2.646H82.33a2.65 2.65 0 0 0 2.646-2.645V20.695a2.65 2.65 0 0 0-2.646-2.646h-2.558v66.409a4.413 4.413 0 0 1-4.409 4.408H26.572z"/></svg>