<svg viewBox="0 0 100 100" xmlns="http://www.w3.org/2000/svg" fill="currentColor">
  <path d="M 61.24 9 L 42.776 9 C 21.393 9 4.095 26.336 4.095 47.679 C 2.013 74.103 34.856 91.236 48.486 97.153 C 51.236 98.362 54.278 96.319 54.278 93.319 L 54.278 84.775 C 54.278 82.482 56.154 80.606 58.447 80.606 L 61.197 80.606 C 80.995 80.606 97 64.561 97 44.804 C 97 25.046 80.954 9 61.197 9 L 61.24 9 Z M 32.854 54.389 C 29.813 54.389 27.354 51.93 27.354 48.888 C 27.354 45.844 29.813 43.388 32.854 43.388 C 35.899 43.388 38.358 45.844 38.358 48.888 C 38.358 51.93 35.899 54.389 32.854 54.389 Z M 50.527 54.389 C 47.486 54.389 45.025 51.93 45.025 48.888 C 45.025 45.844 47.486 43.388 50.527 43.388 C 53.571 43.388 56.03 45.844 56.03 48.888 C 56.03 51.93 53.571 54.389 50.527 54.389 Z M 68.202 54.389 C 65.158 54.389 62.697 51.93 62.697 48.888 C 62.697 45.844 65.158 43.388 68.202 43.388 C 71.242 43.388 73.703 45.844 73.703 48.888 C 73.703 51.93 71.242 54.389 68.202 54.389 Z"/>
</svg>