<svg width="100%" height="100%" version="1.1" viewBox="0 0 100 100" xmlns="http://www.w3.org/2000/svg">
 <path d="m96.293 83.457c3.543 3.5469 3.543 9.2891 0 12.836-3.5469 3.543-9.2891 3.543-12.836 0l-31.992-31.992c-0.80859-0.8125-2.1211-0.8125-2.9297 0l-31.992 31.992c-3.5469 3.543-9.2891 3.543-12.836 0-3.543-3.5469-3.543-9.2891 0-12.836l31.992-31.988c0.8125-0.8125 0.8125-2.125 0-2.9336l-31.992-31.992c-3.543-3.5469-3.543-9.2891 0-12.836 3.5469-3.543 9.2891-3.543 12.836 0l31.992 31.996c0.80859 0.80859 2.1211 0.80859 2.9297 0l31.992-31.996c3.5469-3.543 9.2891-3.543 12.836 0 3.543 3.5469 3.543 9.2891 0 12.836l-31.992 31.992c-0.8125 0.80859-0.8125 2.1211 0 2.9336z"/>
</svg>
