<?xml version="1.0" encoding="UTF-8"?>
<svg fill="currentColor" width="100%" height="100%" version="1.1" viewBox="0 0 100 100" xmlns="http://www.w3.org/2000/svg">
 <g>
  <path d="m67.5 12.801c-3.1992-3.1992-8.3984-3.1992-11.602 0l-38.797 38.801c-2.3008 2.3008-2.3008 6.1016 0 8.3984l21.5 21.5c2.3008 2.3008 6.1016 2.3008 8.3984 0l38.801-38.801c3.1992-3.1992 3.1992-8.3984 0-11.602z"/>
  <path d="m18.602 88.102h0.19922l10.301-0.30078c3.1016-0.10156 4.6016-3.8984 2.3984-6.1016l-14.699-14.699c-2.1992-2.1992-6-0.69922-6.1016 2.3984l-0.30078 10.301c-0.10156 2.3008 0.80078 4.5 2.3984 6.1016 1.5039 1.5 3.6016 2.3008 5.8047 2.3008z"/>
 </g>
</svg>
