<svg width="100%" height="100%" version="1.1" viewBox="0 0 100 100" xmlns="http://www.w3.org/2000/svg" fill="currentColor">
 <g>
  <path d="m82.199 25.301h-64.398c-1.3008 0-2.3008 1.1016-2.1992 2.3984l7.5 62.398c0.5 4.1992 4.1016 7.3984 8.3984 7.3984h37c4.3008 0 7.8984-3.1992 8.3984-7.3984l7.5-62.398c0.10156-1.3008-0.89844-2.3984-2.1992-2.3984zm-45.301 57.699h-0.19922c-1.1992 0-2.1992-0.89844-2.3008-2.1016l-4.1016-38.699c-0.10156-1.3008 0.80078-2.3984 2.1016-2.5 1.3008-0.10156 2.3984 0.80078 2.5 2.1016l4.1016 38.699c0.10156 1.3008-0.80078 2.3984-2.1016 2.5zm15.402-2.3008c0 1.3008-1 2.3008-2.3008 2.3008s-2.3008-1-2.3008-2.3008v-38.699c0-1.3008 1-2.3008 2.3008-2.3008s2.3008 1 2.3008 2.3008zm13.301 0.30078c-0.10156 1.1992-1.1016 2.1016-2.3008 2.1016h-0.19922c-1.3008-0.10156-2.1992-1.3008-2.1016-2.5l4.1016-38.699c0.10156-1.3008 1.3008-2.1992 2.5-2.1016 1.3008 0.10156 2.1992 1.3008 2.1016 2.5z"/>
  <path d="m86.602 10.801h-19.301l-4.6016-6.3984c-0.80078-1.1992-2.1992-1.8984-3.6992-1.8984l-18-0.003906c-1.5 0-2.8008 0.69922-3.6992 1.8984l-4.6016 6.3984-19.301 0.003906c-2.3984 0-4.3008 1.8984-4.3008 4.3008 0 2.3984 1.8984 4.3008 4.3008 4.3008h73.199c2.3984 0 4.3008-1.8984 4.3008-4.3008 0-2.4023-1.8984-4.3008-4.2969-4.3008z"/>
 </g>
</svg>
