<svg height="100%" width="100%" viewBox="0 0 100 100" xmlns="http://www.w3.org/2000/svg">
  <g transform="matrix(1.0666639804840088, 0, 0, 1.0666639804840088, -4.5322370529174805, -4.2468461990356445)">
    <path d="m16.086 76.617c0 1.3672 1.1133 2.4805 2.4805 2.4805h49.793c1.3672 0 2.4805-1.1133 2.4805-2.4805v-66.324c0-1.3672-1.1133-2.4805-2.4805-2.4805h-35.352v12.695c0 2.2812-1.8555 4.1328-4.1367 4.1328l-12.785 0.003906zm7.6328-48.016h39.492c0.45703 0 0.82812 0.36719 0.82812 0.82813 0 0.46094-0.36719 0.82812-0.82812 0.82812h-39.492c-0.45703 0-0.82812-0.36719-0.82812-0.82812 0-0.46094 0.37109-0.82813 0.82812-0.82813zm0 10.609h39.492c0.45703 0 0.82812 0.36719 0.82812 0.82812 0 0.46094-0.36719 0.82813-0.82812 0.82813h-39.492c-0.45703 0-0.82812-0.36719-0.82812-0.82813 0-0.45703 0.37109-0.82812 0.82812-0.82812zm0 10.617h39.492c0.45703 0 0.82812 0.36719 0.82812 0.82812s-0.36719 0.82812-0.82812 0.82812h-39.492c-0.45703 0-0.82812-0.36719-0.82812-0.82812s0.37109-0.82812 0.82812-0.82812zm0 10.613h39.492c0.45703 0 0.82812 0.36719 0.82812 0.82812 0 0.46094-0.36719 0.82812-0.82812 0.82812h-39.492c-0.45703 0-0.82812-0.36719-0.82812-0.82812 0-0.46094 0.37109-0.82812 0.82812-0.82812z"/>
    <path d="m74.898 14.355h-2.3984v62.258c0 2.2812-1.8555 4.1328-4.1328 4.1328h-45.746v2.4102c0 1.3672 1.1133 2.4805 2.4805 2.4805h49.793c1.3672 0 2.4805-1.1133 2.4805-2.4805l0.003906-66.32c0-1.3633-1.1133-2.4805-2.4805-2.4805z"/>
    <path d="m31.352 20.508v-11.531l-14.09 14.016h11.609c1.3711 0 2.4805-1.1172 2.4805-2.4844z"/>
    <path d="m29.16 87.297v2.4102c0 1.3672 1.1133 2.4805 2.4805 2.4805h49.793c1.3672 0 2.4805-1.1133 2.4805-2.4805v-66.324c0-1.3672-1.1133-2.4805-2.4805-2.4805h-2.3984v62.258c0 2.2812-1.8555 4.1328-4.1328 4.1328h-45.742z"/>
  </g>
</svg>