<svg width="100%" height="100%" version="1.1" viewBox="0 0 100 100" xmlns="http://www.w3.org/2000/svg">
 <path d="m52.348 11.457c-1.1094-0.91797-2.7305-0.91797-3.8398 0l-36.531 30.484c-0.67969 0.57031-1.0781 1.4102-1.0781 2.3008v10.949c0 0.87891 0.39062 1.7188 1.0586 2.2891l36.535 31.043c0.55859 0.48047 1.25 0.71094 1.9414 0.71094s1.3789-0.23828 1.9414-0.71094l36.742-31.043c0.66797-0.57031 1.0586-1.4102 1.0586-2.2891l-0.003906-10.941c0-0.89062-0.39844-1.7383-1.0781-2.3086zm31.824 39.934-15.445-3.9297-10.316-23.188 25.773 21.387zm-33.73 3.5195-12.258-6.2891 12.258-27.496 12.258 27.496zm-16.508-1.7227 13.508 6.9297v19.637l-27.176-23.086zm19.504 6.9297 13.508-6.9297 13.797 3.5195-27.305 23.066zm-10.996-35.773-10.297 23.105-15.246 3.8906v-5.6797z"/>
</svg>
