<svg xmlns="http://www.w3.org/2000/svg" viewBox="0 0 100 100"><path d="M52.348 11.457a3.021 3.021 0 0 0-3.84 0l-36.53 30.484a3.005 3.005 0 0 0-1.079 2.3v10.95c0 .879.39 1.719 1.059 2.289l36.535 31.043a3.01 3.01 0 0 0 3.883 0L89.118 57.48a3.02 3.02 0 0 0 1.058-2.29l-.004-10.94c0-.89-.398-1.739-1.078-2.309zm31.824 39.934-15.445-3.93-10.316-23.188L84.184 45.66zm-33.73 3.52-12.258-6.29 12.258-27.496L62.7 48.621zm-16.508-1.723 13.508 6.93v19.636L20.266 56.668zm19.504 6.93 13.508-6.93 13.797 3.52-27.305 23.065zM42.442 24.343 32.145 47.45 16.899 51.34v-5.68z"/></svg>