<svg xmlns="http://www.w3.org/2000/svg" viewBox="0 0 100 100"><path d="M85.484 37.672 73.066 20.574a3.024 3.024 0 0 0-1.5-1.09l-20.098-6.527c-.602-.2-1.25-.2-1.852 0l-20.098 6.527c-.601.2-1.128.578-1.5 1.09L15.596 37.672a2.998 2.998 0 0 0-.57 1.758v21.125c0 .629.2 1.25.57 1.758L28.014 79.41c.371.511.899.89 1.5 1.09l20.098 6.527a2.988 2.988 0 0 0 1.86 0L71.57 80.5a3.024 3.024 0 0 0 1.5-1.09l12.414-17.093c.37-.512.57-1.13.57-1.758V39.434c0-.633-.203-1.25-.57-1.762zm-7.059.492-9.34 4.008L53.54 30.875v-10.93l15.238 4.95zM59.59 63.957H41.491l-5.59-17.207L50.54 36.113 65.176 46.75zM32.292 24.895l15.238-4.949v10.938L31.991 42.173l-9.34-4.008zM21.026 59.59V43.992l8.918 3.828 6.008 18.484-5.347 6.457zm29.512 21.445-14.969-4.86 5.149-6.218h19.625l5.148 6.219zm19.938-8.27L65.13 66.31l6.007-18.484 8.919-3.828v15.598z"/></svg>