<svg width="100%" height="100%" version="1.1" viewBox="0 0 100 100" xmlns="http://www.w3.org/2000/svg">
 <path d="m85.484 37.672-12.418-17.098c-0.37109-0.51172-0.89844-0.89062-1.5-1.0898l-20.098-6.5273c-0.60156-0.19922-1.25-0.19922-1.8516 0l-20.098 6.5273c-0.60156 0.19922-1.1289 0.57812-1.5 1.0898l-12.422 17.098c-0.37109 0.51172-0.57031 1.1289-0.57031 1.7578v21.125c0 0.62891 0.19922 1.25 0.57031 1.7578l12.418 17.098c0.37109 0.51172 0.89844 0.89062 1.5 1.0898l20.098 6.5273c0.30078 0.10156 0.60938 0.14844 0.92969 0.14844 0.32031 0 0.62891-0.050781 0.92969-0.14844l20.098-6.5273c0.60156-0.19922 1.1289-0.57812 1.5-1.0898l12.414-17.094c0.37109-0.51172 0.57031-1.1289 0.57031-1.7578v-21.125c0-0.63281-0.20313-1.25-0.57031-1.7617zm-7.0586 0.49219-9.3398 4.0078-15.547-11.297v-10.93l15.238 4.9492zm-18.836 25.793h-18.098l-5.5898-17.207 14.637-10.637 14.637 10.637zm-27.297-39.062 15.238-4.9492v10.938l-15.539 11.289-9.3398-4.0078zm-11.266 34.695v-15.598l8.918 3.8281 6.0078 18.484-5.3477 6.457zm29.512 21.445-14.969-4.8594 5.1484-6.2188h19.625l5.1484 6.2188zm19.938-8.2695-5.3477-6.457 6.0078-18.484 8.918-3.8281v15.598z"/>
</svg>
