<svg width="100%" height="100%" version="1.1" viewBox="0 0 100 100" xmlns="http://www.w3.org/2000/svg">
 <path d="m82.172 32.355c-0.019531-0.14844-0.03125-0.30078-0.070313-0.44141-0.039062-0.12891-0.10156-0.23828-0.14844-0.37109-0.039063-0.10938-0.070313-0.21875-0.12891-0.32031-0.011719-0.011718-0.019531-0.019531-0.019531-0.03125-0.070313-0.10938-0.16016-0.21094-0.23828-0.32031-0.078125-0.10156-0.14844-0.21094-0.23828-0.30078-0.078125-0.078124-0.17969-0.14062-0.26953-0.21094-0.10938-0.089844-0.21875-0.19141-0.35156-0.26172-0.019531-0.011718-0.03125-0.019531-0.039062-0.03125l-29.312-16.195c-0.94141-0.51953-2.0781-0.5-3 0.058594l-28.676 17.297c-0.019532 0.011719-0.03125 0.03125-0.050782 0.039063-0.12109 0.070313-0.21875 0.17188-0.32812 0.26172-0.089843 0.078125-0.19141 0.14844-0.28125 0.23828-0.078125 0.089844-0.14844 0.19922-0.21875 0.28906-0.078125 0.10937-0.17188 0.21875-0.23047 0.33984-0.011718 0.019531-0.019531 0.03125-0.03125 0.039063-0.050781 0.10156-0.070312 0.19922-0.10156 0.30078-0.050781 0.12891-0.10938 0.25-0.14062 0.39062s-0.039063 0.28125-0.050781 0.41797c-0.011719 0.10156-0.039063 0.19922-0.039063 0.30859l0.62891 33.484c0.019531 1.0703 0.60937 2.0508 1.5508 2.5703l29.332 16.207c0.44922 0.25 0.94922 0.37109 1.4492 0.37109 0.53906 0 1.0703-0.14062 1.5508-0.42969l28.684-17.285c0.91797-0.55078 1.4688-1.5508 1.4492-2.6289l-0.62891-33.484c0-0.10156-0.039062-0.20312-0.050781-0.30078zm-21.926 27.652-8.8789 15.816-9.4688-15.477zm-18.926-6.1992 8.8789-15.816 9.4688 15.477zm-5.3594-2.707-9.4375-14.605 18.258-1.1094zm29.305 0.027344-9.7578-15.945 18.617 0.41797zm-12.215-22.004-0.089843-7.4883 14.129 7.8086zm-6 0.10938-13.828 0.83984 13.746-8.2891zm-14.969 26.914-7.3398 5.3398-0.32813-17.195zm3.2891 5.0195 9.3867 15.348-17.336-9.5781zm31.105-0.011719 7.707 4.9609-15.848 9.5469zm2.9609-5.2383 6.9883-12.258 0.32031 16.965z"/>
</svg>
