<svg xmlns="http://www.w3.org/2000/svg" viewBox="0 0 100 100"><path d="M82.172 32.355c-.02-.148-.031-.3-.07-.441-.04-.13-.102-.239-.149-.372-.039-.109-.07-.218-.129-.32-.011-.012-.02-.02-.02-.031-.07-.11-.16-.211-.237-.32-.079-.102-.149-.211-.239-.301-.078-.078-.18-.14-.27-.211-.109-.09-.218-.192-.35-.262a.113.113 0 0 1-.04-.031L51.356 13.87a2.985 2.985 0 0 0-3 .059L19.68 31.227c-.02.011-.031.03-.05.039-.122.07-.22.171-.329.261-.09.078-.191.149-.281.239-.078.09-.148.199-.219.289-.078.109-.172.218-.23.34a.113.113 0 0 1-.032.039c-.05.101-.07.199-.101.3-.05.13-.11.25-.14.391s-.04.281-.051.418c-.012.101-.04.2-.04.309l.63 33.484c.019 1.07.609 2.05 1.55 2.57L49.72 86.113c.45.25.95.37 1.45.37.538 0 1.07-.14 1.55-.429L81.403 68.77a2.994 2.994 0 0 0 1.45-2.629l-.63-33.484c0-.101-.039-.203-.05-.3zM60.246 60.007l-8.879 15.816-9.469-15.477zm-18.926-6.2 8.879-15.815 9.469 15.477zm-5.36-2.706-9.437-14.605 18.258-1.11zm29.306.027-9.758-15.945 18.617.418zM53.05 29.124l-.09-7.488 14.129 7.808zm-6 .11-13.828.84 13.746-8.29zM32.08 56.148l-7.34 5.34-.327-17.196zm3.29 5.019 9.386 15.348-17.336-9.578zm31.105-.012 7.707 4.961-15.848 9.547zm2.96-5.238 6.989-12.258.32 16.965z"/></svg>