<svg width="100%" height="100%" version="1.1" viewBox="0 0 100 100" xmlns="http://www.w3.org/2000/svg">
 <path d="m52.91 11.938c-0.57031-0.73828-1.4492-1.168-2.3789-1.168s-1.8086 0.42969-2.3789 1.168l-37.773 48.949c-0.51953 0.66797-0.73047 1.5312-0.57812 2.3711 0.14844 0.82813 0.64844 1.5703 1.3711 2.0078l37.781 23.516c0.48828 0.30078 1.0391 0.44922 1.5898 0.44922s1.1016-0.14844 1.5898-0.44922l37.781-23.516c0.71875-0.44922 1.2188-1.1797 1.3711-2.0078 0.14844-0.82812-0.058594-1.6914-0.57812-2.3711zm-5.3711 10.629v58.277l-30.383-18.918zm6 58.266v-58.266l30.383 39.363z"/>
</svg>
