<svg xmlns="http://www.w3.org/2000/svg" viewBox="0 0 100 100"><path d="M83.664 28.203 51.711 14.676c-.75-.32-1.59-.32-2.34 0L17.418 28.203a3.006 3.006 0 0 0-1.828 2.738v37.622c0 1.191.711 2.27 1.8 2.75l31.954 13.996c.379.172.789.25 1.2.25.41 0 .82-.078 1.198-.25l31.953-13.996a3.012 3.012 0 0 0 1.801-2.75l-.004-37.598v-.02a3 3 0 0 0-1.828-2.742zm-33.125-7.508 24.375 10.316-24.375 10.68-24.375-10.676zm-28.965 14.86L47.539 46.92v31.055l-25.965-11.37zm31.965 42.417v-31.05l25.953-11.368V66.61z"/></svg>