<svg width="100%" height="100%" version="1.1" viewBox="0 0 100 100" xmlns="http://www.w3.org/2000/svg">
 <path d="m83.664 28.203-31.953-13.527c-0.75-0.32031-1.5898-0.32031-2.3398 0l-31.953 13.527c-1.1016 0.46875-1.8203 1.5508-1.8281 2.7383v0.019532 37.602c0 1.1914 0.71094 2.2695 1.8008 2.75l31.953 13.996c0.37891 0.17188 0.78906 0.25 1.1992 0.25 0.41016 0 0.82031-0.078125 1.1992-0.25l31.953-13.996c1.0898-0.48047 1.8008-1.5586 1.8008-2.75l-0.003906-37.598v-0.019532c-0.007813-1.1914-0.71875-2.2695-1.8281-2.7422zm-33.125-7.5078 24.375 10.316-24.375 10.68-24.375-10.676zm-28.965 14.859 25.965 11.367v31.055l-25.965-11.371zm31.965 42.418v-31.051l25.953-11.367v31.055z"/>
</svg>
