<svg xmlns="http://www.w3.org/2000/svg" viewBox="0 0 100 100"><path d="M80.785 31.625 52.738 14.676a3.004 3.004 0 0 0-3-.059l-28.691 15.81a2.999 2.999 0 0 0-1.55 2.57l-.65 32.762a3.013 3.013 0 0 0 1.45 2.629L48.34 85.333c.48.289 1.012.43 1.55.43.5 0 1-.122 1.45-.372l28.695-15.816a2.999 2.999 0 0 0 1.55-2.57l.65-32.762a2.98 2.98 0 0 0-1.45-2.617zm-4.969 23.793L58.66 25.254l17.535 10.598zm-2.41 7.91-45.199-.449 22.566-39.363zM42.863 25.254 25.035 56.348l.43-21.504zm7.086 54.04L32.785 68.925l35.352.352z"/></svg>