<svg width="100%" height="100%" version="1.1" viewBox="0 0 100 100" xmlns="http://www.w3.org/2000/svg">
 <path d="m80.785 31.625-28.047-16.949c-0.91797-0.55078-2.0586-0.57812-3-0.058593l-28.691 15.809c-0.94141 0.51953-1.5312 1.5-1.5508 2.5703l-0.64844 32.762c-0.019531 1.0703 0.53125 2.0703 1.4492 2.6289l28.043 16.945c0.48047 0.28906 1.0117 0.42969 1.5508 0.42969 0.5 0 1-0.12109 1.4492-0.37109l28.695-15.816c0.94141-0.51953 1.5312-1.5 1.5508-2.5703l0.64844-32.762c0.019531-1.0703-0.53125-2.0703-1.4492-2.6172zm-4.9688 23.793-17.156-30.164 17.535 10.598zm-2.4102 7.9102-45.199-0.44922 22.566-39.363zm-30.543-38.074-17.828 31.094 0.42969-21.504zm7.0859 54.039-17.164-10.367 35.352 0.35156z"/>
</svg>
